<mxfile host="app.diagrams.net" modified="2023-11-03T08:29:32.267Z" agent="Mozilla/5.0 (Windows NT 10.0; Win64; x64) AppleWebKit/537.36 (KHTML, like Gecko) Chrome/118.0.0.0 Safari/537.36 Edg/118.0.2088.76" etag="Pl9Ll8_kKUz0c2piYOVL" version="22.0.8" type="github">
  <diagram name="第 1 页" id="U1troU89-dCuwRi3Gn4e">
    <mxGraphModel dx="1120" dy="793" grid="1" gridSize="10" guides="1" tooltips="1" connect="1" arrows="1" fold="1" page="1" pageScale="1" pageWidth="1169" pageHeight="827" math="0" shadow="0">
      <root>
        <mxCell id="0" />
        <mxCell id="1" parent="0" />
        <mxCell id="rUnrRNRj65xeHvoS4-iV-1" value="" style="rounded=0;whiteSpace=wrap;html=1;fillColor=#f5f5f5;strokeColor=#666666;fontColor=#333333;" vertex="1" parent="1">
          <mxGeometry x="20" y="90" width="230" height="470" as="geometry" />
        </mxCell>
        <mxCell id="rUnrRNRj65xeHvoS4-iV-2" style="edgeStyle=orthogonalEdgeStyle;rounded=0;orthogonalLoop=1;jettySize=auto;html=1;entryX=0.5;entryY=0;entryDx=0;entryDy=0;" edge="1" parent="1" source="rUnrRNRj65xeHvoS4-iV-3" target="rUnrRNRj65xeHvoS4-iV-5">
          <mxGeometry relative="1" as="geometry" />
        </mxCell>
        <mxCell id="rUnrRNRj65xeHvoS4-iV-3" value="" style="shape=actor;whiteSpace=wrap;html=1;fillColor=#fff2cc;strokeColor=#d6b656;" vertex="1" parent="1">
          <mxGeometry x="110" y="140" width="40" height="60" as="geometry" />
        </mxCell>
        <mxCell id="rUnrRNRj65xeHvoS4-iV-4" style="edgeStyle=orthogonalEdgeStyle;rounded=0;orthogonalLoop=1;jettySize=auto;html=1;entryX=0.5;entryY=0;entryDx=0;entryDy=0;" edge="1" parent="1" source="rUnrRNRj65xeHvoS4-iV-5" target="rUnrRNRj65xeHvoS4-iV-6">
          <mxGeometry relative="1" as="geometry">
            <mxPoint x="130" y="340" as="targetPoint" />
          </mxGeometry>
        </mxCell>
        <mxCell id="rUnrRNRj65xeHvoS4-iV-5" value="用户在造价成果上传了QDG3、QDG4文件" style="rounded=1;whiteSpace=wrap;html=1;fillColor=#d5e8d4;strokeColor=#82b366;" vertex="1" parent="1">
          <mxGeometry x="70" y="240" width="120" height="60" as="geometry" />
        </mxCell>
        <mxCell id="rUnrRNRj65xeHvoS4-iV-6" value="将这两条文件记录插入到t_record_analy_file表" style="rounded=1;whiteSpace=wrap;html=1;fillColor=#d5e8d4;strokeColor=#82b366;" vertex="1" parent="1">
          <mxGeometry x="70" y="330" width="120" height="60" as="geometry" />
        </mxCell>
        <mxCell id="rUnrRNRj65xeHvoS4-iV-7" value="" style="rounded=0;whiteSpace=wrap;html=1;fillColor=#f5f5f5;strokeColor=#666666;fontColor=#333333;" vertex="1" parent="1">
          <mxGeometry x="280" y="90" width="800" height="470" as="geometry" />
        </mxCell>
        <mxCell id="rUnrRNRj65xeHvoS4-iV-8" value="quota-project服务" style="text;html=1;strokeColor=none;fillColor=none;align=center;verticalAlign=middle;whiteSpace=wrap;rounded=0;" vertex="1" parent="1">
          <mxGeometry x="30" y="110" width="110" height="20" as="geometry" />
        </mxCell>
        <mxCell id="rUnrRNRj65xeHvoS4-iV-9" value="" style="rounded=0;whiteSpace=wrap;html=1;fillColor=#fff2cc;strokeColor=#d6b656;" vertex="1" parent="1">
          <mxGeometry x="750" y="130" width="290" height="400" as="geometry" />
        </mxCell>
        <mxCell id="rUnrRNRj65xeHvoS4-iV-10" value="&lt;font style=&quot;font-size: 12px;&quot;&gt;RPA程序&lt;/font&gt;" style="text;html=1;strokeColor=none;fillColor=none;align=center;verticalAlign=middle;whiteSpace=wrap;rounded=0;" vertex="1" parent="1">
          <mxGeometry x="764" y="140" width="110" height="20" as="geometry" />
        </mxCell>
        <mxCell id="rUnrRNRj65xeHvoS4-iV-11" value="" style="rounded=0;whiteSpace=wrap;html=1;fillColor=#e1d5e7;strokeColor=#9673a6;" vertex="1" parent="1">
          <mxGeometry x="350" y="130" width="350" height="400" as="geometry" />
        </mxCell>
        <mxCell id="rUnrRNRj65xeHvoS4-iV-12" value="任务机" style="text;html=1;strokeColor=none;fillColor=none;align=center;verticalAlign=middle;whiteSpace=wrap;rounded=0;" vertex="1" parent="1">
          <mxGeometry x="280" y="110" width="110" height="20" as="geometry" />
        </mxCell>
        <mxCell id="rUnrRNRj65xeHvoS4-iV-13" value="&lt;font style=&quot;font-size: 12px;&quot;&gt;Jar包程序&lt;/font&gt;" style="text;html=1;strokeColor=none;fillColor=none;align=center;verticalAlign=middle;whiteSpace=wrap;rounded=0;" vertex="1" parent="1">
          <mxGeometry x="400" y="140" width="110" height="20" as="geometry" />
        </mxCell>
        <mxCell id="rUnrRNRj65xeHvoS4-iV-15" value="读需要解析的文件" style="rounded=1;whiteSpace=wrap;html=1;fillColor=#dae8fc;strokeColor=#6c8ebf;" vertex="1" parent="1">
          <mxGeometry x="410" y="180" width="120" height="60" as="geometry" />
        </mxCell>
      </root>
    </mxGraphModel>
  </diagram>
</mxfile>
